# xmcd CD database file
#
# Track frame offsets:
#	150
#	35163
#	47938
#	60606
#	72808
#	86581
#	98887
#	116258
#	126359
#	131927
#	136926
#	140786
#	153690
#	165774
#	183036
#
# Disc length: 2664 seconds
#
# Revision: 0
# Processed by: cddbd v1.5.1PL0 Copyright (c) Steve Scherf et al.
# Submitted via: CDex 1.40Release
#
DISCID=d70a660f
DTITLE=西野尚利 - 星降る海に〜恋の三重奏〜
DYEAR=1900
DGENRE=Game
TTITLE0=Data Track
TTITLE1=喜ばしい曲その１
TTITLE2=喜ばしい曲その２
TTITLE3=楽しき歌その１
TTITLE4=楽しき歌その２
TTITLE5=哀の歌その１
TTITLE6=哀の歌その２
TTITLE7=怒れる女たち
TTITLE8=pl
TTITLE9=vf
TTITLE10=vc
TTITLE11=Sun Talk
TTITLE12=逢瀬Remix
TTITLE13=星降る海へ
TTITLE14=Sea so Show
EXTD=ID3G: 36
EXTT0=
EXTT1=
EXTT2=
EXTT3=
EXTT4=
EXTT5=
EXTT6=
EXTT7=
EXTT8=
EXTT9=
EXTT10=
EXTT11=
EXTT12=
EXTT13=
EXTT14=
PLAYORDER=
